<svg version="1.1" xmlns="http://www.w3.org/2000/svg" xmlns:xlink="http://www.w3.org/1999/xlink" class="thumbnail-icon" viewBox="0.000007748603820800781 2.8346691131591797 199.99998474121094 194.33067321777344"><g data-paper-data="{&quot;fillRule&quot;:&quot;evenodd&quot;,&quot;isIcon&quot;:&quot;true&quot;,&quot;iconType&quot;:&quot;icon&quot;,&quot;rawIconId&quot;:&quot;73068&quot;,&quot;selectedEffects&quot;:{&quot;container&quot;:&quot;&quot;,&quot;transformation&quot;:&quot;&quot;,&quot;pattern&quot;:&quot;&quot;},&quot;isDetailed&quot;:false,&quot;bounds&quot;:{&quot;x&quot;:210.7472330969813,&quot;y&quot;:115,&quot;width&quot;:128.50553380603742,&quot;height&quot;:124.8624295784914},&quot;iconStyle&quot;:&quot;standalone&quot;}"><path d="M183.37462,127.02408c9.60434,13.91795 14.73927,29.5275 16.59559,46.28558c0.21813,1.99432 -0.78348,2.63758 -2.2859,3.30977c-13.28137,5.9696 -27.21712,8.89654 -43.3631,9.00783c-2.23471,-0.16916 -6.06309,-0.52752 -9.90037,-0.69445c-1.11958,-0.04452 -2.40164,0.22035 -3.37654,0.76568c-27.31728,15.24675 -54.61008,15.30462 -81.96297,0.08013c-1.12403,-0.62768 -2.66429,-0.92816 -3.94857,-0.79016c-18.52759,1.96984 -36.25388,-0.90145 -53.24789,-8.50034c-1.52913,-0.68332 -2.02548,-1.53135 -1.85187,-3.2519c1.80513,-17.99117 7.89047,-34.34192 18.32059,-49.13015c1.18413,-1.67603 2.00545,-3.97306 2.07222,-6.01189c0.9749,-30.12402 14.00475,-53.25234 39.79068,-69.00435c2.08113,-1.27093 3.47893,-2.71771 4.47832,-4.95909c7.23386,-16.24836 18.19594,-29.49634 32.43218,-40.13123c2.20132,-1.64487 3.6147,-1.48906 5.74702,0.09794c14.60795,10.87305 25.61009,24.55951 32.94856,41.23078c0.47855,1.09064 1.47126,2.17016 2.50625,2.77558c22.70319,13.31698 36.20714,32.90182 40.267,58.93036c0.02649,0.16916 0.0532,0.33877 0.07991,0.5086c0.35234,2.23537 0.71382,4.52929 0.49658,6.73639c-0.48523,4.96354 1.46458,8.77412 4.20232,12.74495zM97.33174,10.02474c-13.41269,10.69721 -23.39319,23.9118 -29.76344,39.85078c-5.09486,12.75163 -7.34515,25.96399 -6.57502,40.14013c2.58193,-0.93261 4.7009,-1.92532 6.92893,-2.43948c2.26364,-0.52306 2.93583,-1.57809 3.00483,-3.90851c0.48745,-16.74694 5.22173,-32.2096 14.62575,-46.13422c4.07322,-6.0297 8.75186,-11.56305 15.03085,-16.73804c4.79438,5.86277 9.44631,11.54524 14.09156,17.23439c0.50748,0.61877 0.86139,1.63597 1.48906,1.83184c4.35367,1.35329 8.76521,2.53519 13.47946,3.86399c-6.61731,-13.57962 -15.69191,-24.62851 -27.1637,-33.8055c-2.01213,-1.6048 -3.24745,-1.40671 -5.14828,0.10461zM99.94261,27.58633c-3.23632,3.80835 -6.16102,7.24721 -9.32834,10.97544h18.72123c-3.23854,-3.78387 -6.13654,-7.16931 -9.39289,-10.97544zM173.93276,109.36011c-0.02003,-0.30271 -0.01781,-0.60764 -0.06455,-0.9059c-3.91296,-25.75254 -17.1832,-44.99906 -40.29371,-57.11856c-13.53066,-7.09586 -28.07628,-9.37731 -43.23845,-7.46757c-1.31322,0.16471 -3.14951,0.56313 -3.71487,1.48238c-1.96984,3.20516 -3.48783,6.69076 -5.31299,10.33663c5.63573,-0.79684 10.6794,-1.95426 15.75646,-2.15458c29.44515,-1.16187 55.2333,16.91165 64.0831,45.01019c1.30209,4.13554 3.06271,7.46534 6.46818,10.10515c2.23916,1.7339 4.16003,3.87512 6.66183,6.2456c-0.14468,-2.33264 -0.24706,-3.93299 -0.345,-5.53335zM57.36522,56.65309c-16.8293,12.04827 -27.42857,28.19202 -30.72721,48.63157c-3.47003,21.4879 1.3889,41.13284 14.86169,58.43846c0.58539,0.75677 1.48684,1.82071 2.2258,1.80735c3.87735,-0.05565 7.75247,-0.41623 12.25972,-0.71003c-1.33771,-1.48684 -2.12342,-2.38161 -2.93583,-3.25635c-6.72193,-7.21605 -11.77672,-15.47378 -14.43433,-24.95793c-6.94228,-24.791 -1.32658,-46.4859 16.61339,-64.98232c0.75677,-0.77903 1.68493,-1.65377 1.92309,-2.62867c1.11513,-4.5807 2.01658,-9.21037 3.07606,-14.20508c-1.0951,0.70781 -2.00545,1.2509 -2.86238,1.863zM76.24893,77.52445c-0.35613,2.40609 -0.26264,4.87673 -0.38506,7.60334c16.33072,-3.70596 32.13392,-3.69261 48.88086,0.15581c-1.16187,-7.19602 -2.25029,-13.81111 -3.29419,-20.43955c-0.32497,-2.03661 -1.44677,-3.00038 -3.43441,-3.63251c-12.24192,-3.89293 -24.44154,-3.84174 -36.59443,0.19364c-1.09955,0.36503 -2.39942,1.66045 -2.65983,2.75109c-1.0528,4.40709 -1.84519,8.88318 -2.51293,13.36817zM137.13356,71.62162c-3.18067,-2.43948 -6.55944,-4.62077 -9.86253,-6.89554c5.87835,31.41499 -1.91419,58.27153 -23.59796,81.39539c2.76222,2.10116 5.30409,4.02648 7.84596,5.9518c0.58093,-0.43403 0.94597,-0.62545 1.20861,-0.90813c20.03891,-21.6081 28.59489,-47.11135 25.83045,-76.41627c-0.10461,-1.09732 -0.61655,-2.50403 -1.42451,-3.12725zM56.03419,77.90506c-5.87389,6.5216 -9.6867,13.25243 -12.52014,21.4701c4.25128,-2.42167 7.9105,-4.46496 11.50963,-6.60618c0.48968,-0.29158 0.95487,-1.07951 0.966,-1.64487c0.0621,-3.11612 0.05587,-6.23603 0.04897,-9.69538c-0.00223,-1.13427 -0.00445,-2.30482 -0.00445,-3.52367zM145.073,92.93591c3.53458,2.06555 7.12702,4.03538 11.30708,6.37915c-2.88687,-8.13754 -6.5728,-14.8973 -12.38882,-21.23194c0,1.2006 -0.00245,2.36002 -0.0049,3.48828c-0.00712,3.45044 -0.0138,6.60974 0.05164,9.76638c0.01113,0.54977 0.53197,1.30432 1.035,1.59813zM123.63629,93.28536c0.45852,-2.36158 -0.345,-3.38545 -2.74442,-3.86177c-28.22764,-5.6246 -54.14266,-0.42958 -77.6004,16.39749c-0.75455,0.53864 -1.62706,1.449 -1.72945,2.277c-0.51193,4.13109 -0.78348,8.29779 -1.21306,13.32143c24.308,-21.57026 51.40047,-28.45689 82.3191,-21.14958c0.33164,-2.45729 0.53197,-4.74541 0.96822,-6.98457zM151.14499,180.41888c9.94266,1.4579 27.15257,-1.27539 40.86575,-6.65293c2.48622,-0.97713 2.84012,-2.30593 2.49067,-4.5629c-3.57019,-23.0148 -13.88901,-42.3971 -31.21911,-57.98217c-5.92509,-5.32857 -12.45559,-9.81579 -19.86084,-13.48837c-0.52306,2.77558 -0.87697,5.25067 -1.47793,7.65899c-0.483,1.93422 -0.06677,3.05603 1.76061,4.14222c12.19963,7.28283 21.98426,17.04965 29.3116,29.2337c5.03032,8.36012 8.5827,17.29004 10.46573,27.31506c-3.50119,0.93039 -6.57057,1.91864 -9.7134,2.53964c-3.36096,0.66552 -6.7887,0.97268 -10.1786,1.46903c-0.45673,0.06677 -0.96021,0.09437 -1.4668,0.12197c-1.24934,0.06833 -2.51872,0.13755 -3.15841,0.79951c-3.03822,3.14283 -5.63351,6.7108 -7.81925,9.40624zM78.40351,105.27131c3.79499,14.44546 10.88418,26.62506 21.38997,37.11972c9.45521,-7.80144 21.45674,-29.00667 21.15403,-37.31782c-14.09379,-3.68148 -28.17867,-3.76161 -42.544,0.1981zM64.38318,110.5242c0.18252,1.03722 0.22481,1.74726 0.43626,2.40387c8.9967,27.90044 26.86099,47.88815 53.56618,59.96536c0.6121,0.27377 1.47571,0.62322 1.98096,0.40287c3.97751,-1.75393 7.89715,-3.63474 12.55576,-5.8138c-30.83628,-10.37447 -50.32318,-30.44454 -59.44675,-60.77555c-3.11612,1.30877 -5.98518,2.51293 -9.09241,3.81725zM59.49309,112.31597c-6.07422,5.07261 -11.50963,9.52866 -16.81372,14.13608c-0.64548,0.56313 -0.98158,2.01213 -0.80129,2.91358c2.60196,12.8785 8.79192,23.756 18.57655,32.54124c0.69668,0.621 1.83629,1.44232 2.53964,1.26648c7.22273,-1.82071 14.18059,-4.32919 20.7801,-8.4536c-11.3605,-11.9993 -19.26433,-25.67686 -24.28129,-42.40378zM140.13617,113.18404c-4.68309,15.87665 -12.72046,29.57202 -24.6018,42.22349c7.4097,2.74887 14.16056,5.29741 20.96707,7.7035c0.62768,0.22258 1.76284,-0.28268 2.3638,-0.80129c10.02724,-8.69844 16.41307,-19.58262 19.16194,-32.5635c0.20255,-0.95042 0.05565,-2.39719 -0.54532,-3.03377c-5.00583,-5.31522 -10.67273,-9.81802 -17.34568,-13.52843zM5.23246,170.21357c-0.2849,1.89638 0.47187,2.6398 2.13009,3.29419c23.89622,9.44186 47.85477,9.66444 71.77102,0.31606c5.63351,-2.19909 10.91979,-5.28183 16.80927,-8.17537c-2.0188,-1.68271 -3.33425,-2.7689 -4.63412,-3.86399c-1.29764,-1.09955 -2.58416,-2.21022 -3.84841,-3.29196c-22.60303,12.77611 -46.08748,15.41814 -70.97641,7.53657c0.22481,-1.22197 0.27377,-2.23248 0.59652,-3.14951c2.1479,-6.07422 4.36703,-12.11727 6.51938,-18.18926c0.0463,-0.13043 0.09549,-0.26354 0.14534,-0.39864c0.32786,-0.88943 0.68711,-1.86389 0.51127,-2.67742c-0.89255,-4.10883 -2.01658,-8.16202 -3.12725,-12.50679c-0.59874,0.79684 -1.15964,1.4579 -1.62706,2.18129c-7.6946,11.89692 -12.16847,24.96683 -14.26962,38.92484zM67.57943,184.75475c18.94381,8.79192 38.35504,9.96715 57.96436,2.7689c20.5219,-7.53212 34.9095,-21.72829 43.37645,-41.86736c0.45184,-1.07951 0.71448,-2.73329 0.20477,-3.63028c-1.82071,-3.22741 -4.01535,-6.24338 -6.30125,-9.69782c-0.43403,1.01497 -0.72116,1.52022 -0.86361,2.06109c-2.45061,9.23041 -6.69076,17.55713 -12.98979,24.71977c-15.58285,17.70849 -35.15211,25.08035 -58.55865,22.03545c-1.34305,-0.17584 -2.69322,-0.55934 -4.03516,-0.94018c-2.13855,-0.6072 -4.25574,-1.20839 -6.28812,-0.95398c-4.87006,0.60319 -9.55982,2.66429 -14.45882,4.1489c0.345,0.36503 0.45852,0.54977 0.621,0.64771c0.43181,0.25374 0.87251,0.49635 1.3288,0.70781zM178.02602,162.71707c-1.69161,-4.76322 -3.16064,-8.90989 -4.80106,-13.53288c-3.2519,5.63351 -6.14099,10.64824 -9.35505,16.21498c4.84335,-0.91703 9.27715,-1.75616 14.15611,-2.68209zM21.86588,162.7282c4.93906,0.93261 9.33724,1.76506 14.19617,2.68209c-3.19625,-5.50219 -6.09647,-10.48798 -9.37731,-16.1304c-1.63597,4.56735 -3.10277,8.66283 -4.81886,13.4483zM87.71627,175.7536c8.36012,1.57809 16.04581,1.57809 24.53058,0.00445c-4.22457,-2.49958 -7.73689,-4.61854 -11.30485,-6.6418c-0.50748,-0.28713 -1.43564,-0.36058 -1.91642,-0.08681c-3.6147,2.06555 -7.16709,4.24461 -11.30931,6.72415z" fill-rule="evenodd"></path></g></svg>