<?xml version="1.0" encoding="utf-8"?><!-- Uploaded to: SVG Repo, www.svgrepo.com, Generator: SVG Repo Mixer Tools -->
<svg width="75" height="75" viewBox="0 0 75 75" fill="none" xmlns="http://www.w3.org/2000/svg">
<path d="M75 0H0V75H75V0Z" fill="#0052CC"></path>
<path d="M34.4096 42.9167L29.5485 67.2917L40.6249 42.9167H34.4096Z" fill="white"></path>
<path d="M67.8473 28.8889L45.764 24.3403L48.1598 7.70831L39.5487 24.3403L11.0765 28.8889H67.8473Z" fill="white"></path>
<path d="M11.0416 31.7708H14.7222L13.368 37.5347L17.5 31.7708H21.1805L17.118 40.2778H14.8958L18.4027 33.1597L12.9861 40.2778H10.868L12.3958 33.0903L8.99301 40.2778H6.9444L11.0416 31.7708Z" fill="white"></path>
<path d="M22.8472 31.8055H29.2013L28.4374 33.4375H24.4097L23.5416 35.2083H27.3611L26.5624 36.8055H22.7777L21.9097 38.6111H26.0416L25.243 40.2778H18.7847L22.8472 31.8055Z" fill="white"></path>
<path d="M29.757 38.6458H30.8681C32.4306 38.6458 34.0626 38.0208 35.0695 36.0416C36.5626 33.0903 34.6181 33.4028 33.3334 33.368H32.2917L29.757 38.6458ZM30.7292 31.7708H34.3056C35.3126 31.7708 36.5973 31.875 37.1876 32.4653C38.0209 33.3333 37.7084 34.7222 37.0834 35.9722C36.1806 37.8472 34.9306 39.2361 32.882 39.8958C31.8404 40.2083 30.8334 40.2083 30.2431 40.2083H26.6667L30.7292 31.7708Z" fill="white"></path>
<path d="M40.4515 31.7708H42.8473L39.5834 38.6111H42.9515L42.1529 40.2778H36.389L40.4515 31.7708Z" fill="white"></path>
<path d="M47.5694 31.7708H50L45.9027 40.2778H43.4722L47.5694 31.7708Z" fill="white"></path>
<path d="M51.5626 31.7708H54.7917L54.6181 38.125L57.6389 31.7708H59.6875L55.6251 40.2778H52.4653L52.7084 33.6805L49.5487 40.2778H47.4653L51.5626 31.7708Z" fill="white"></path>
<path d="M61.3542 31.8055H67.7431L66.9445 33.4375H62.9167L62.0487 35.2083H65.8681L65.1042 36.8055H61.2848L60.4167 38.6111H64.5487L63.7501 40.2778H57.2917L61.3542 31.8055Z" fill="white"></path>
</svg>